<svg xmlns="http://www.w3.org/2000/svg" viewBox="0 0 223.1 223.1"><defs><style>.cls-1{fill:#e2544d;}.cls-2{fill:#f1bc99;}.cls-3{fill:none;stroke:#f2f2f2;stroke-miterlimit:10;}.cls-4{font-size:36px;fill:#f2f2f2;font-family:PoiretOne-Regular, Poiret One;}</style></defs><g id="Layer_2" data-name="Layer 2"><g id="Layer_2-2" data-name="Layer 2"><circle class="cls-1" cx="111.55" cy="111.55" r="111.55"/><path class="cls-2" d="M36.05,126c-11.29-3.47-23.89-21.72-23.89-21.72s28.67,15.64,41.7,13.9,17.81-7.38,17.81-7.38-7.52,1.84-11.72-3.91C51.47,95.28,43.87,74.28,37.36,71.67,31.71,69.42,21.72,73,14.77,82.1s-10.28,29.21-7.39,33C15.64,126,36.05,126,36.05,126Z"/><path class="cls-2" d="M50,60s2.61-3.48,3.91-2.18,15.64,50.39,25.2,53.87,14.33.43,14.33.43-5.21,2.17-5.64-2.6S99,42.57,81.23,42.14,52.56,50,50,60Z"/><path class="cls-2" d="M90.79,37.79c.43,4.35,12.22,52.93,10.86,74.72-.26,4.1,5.53,4.57,10.32,4.27a7.94,7.94,0,0,0,7.29-6.39c3.47-17.7,13.88-71.51,12.79-74.77-1.3-3.91-9.12-7.38-21.28-5.65S90.35,33.45,90.79,37.79Z"/><path class="cls-2" d="M120.33,113.38s20.41,2.6,22.58-.87,25.63-52.13,30-53.43,4.34.87,4.34.87-.87-10.86-12.16-13.47-18.25-4.78-20.85.43-14.77,58.21-15.64,60.82S126.84,112.51,120.33,113.38Z"/><path class="cls-2" d="M152,112.94s14.33.44,18.24-5.21S184.87,76.58,192.43,76c11.73-.87,19.55,8.69,21.29,24.32s-1.3,17.81-1.3,17.81,0-14.33-2.18-14.33-10,15.2-22.15,16.51S152,112.94,152,112.94Z"/><path class="cls-3" d="M41.37,64.88c5.77-.26,10.36,5.1,12.14,10.59s1.73,11.45,3.47,17a27.73,27.73,0,0,0,21.6,18.64"/><path class="cls-3" d="M82,39c3-.7,6.16,1.49,7.56,4.28s1.49,6,1.55,9.16L92,92.17c.17,8.22,1,17.7,7.68,22.44"/><path class="cls-3" d="M141,39.89c-4.15,2.89-6.57,7.76-7.7,12.69s-1.14,10.05-1.46,15.1A121,121,0,0,1,120,112.73"/><path class="cls-3" d="M191.6,74.21c-1.74-3.73-6.5-5.41-10.51-4.49s-7.29,3.94-9.53,7.41-3.62,7.39-5.2,11.19a107.91,107.91,0,0,1-15.83,26.54"/><path class="cls-3" d="M209.42,121.7a4.72,4.72,0,0,0-3.69-3.68,3.55,3.55,0,0,0-4,2.93c-.17,1.84,1.9,3.58,3.61,2.89"/><path class="cls-3" d="M22.72,126.66A16,16,0,0,0,43,125.07"/><text class="cls-4" transform="translate(48.65 155.14)">Round</text><text class="cls-4" transform="translate(92.42 191.41)">Robin</text></g></g></svg>